<svg xmlns="http://www.w3.org/2000/svg" viewBox="0 0 1180 360" role="img" aria-labelledby="frankli-logo-title">
  <title id="frankli-logo-title">Frankli Studios</title>
  <style>
    .mark {
      fill: none;
      stroke: #f2eee6;
      stroke-linecap: round;
      stroke-linejoin: round;
      stroke-width: 12;
    }

    .wordmark {
      fill: #f2eee6;
      font-family: Georgia, "Times New Roman", serif;
      font-size: 156px;
      font-weight: 700;
      letter-spacing: 1px;
    }

    .submark {
      fill: #f2eee6;
      font-family: Georgia, "Times New Roman", serif;
      font-size: 52px;
      font-weight: 700;
      letter-spacing: 1px;
    }
  </style>

  <path class="mark" d="M118 310l6-70-38-39 8-95h24l6-48c3-24 41-28 53-8 14-18 39-19 54-3 17-14 39-14 56 0l11 10 10-50c5-28 45-24 45 4l-4 159c-1 21-10 41-27 53l-32 23v64z"/>
  <path class="mark" d="M191 246l-7 39"/>
  <path class="mark" d="M216 250l-6 40"/>
  <path class="mark" d="M343 113c-18-10-30-31-27-52 2-15 13-28 24-39 9-10 12-23 14-36l5-38c3-22 23-38 45-38 22 0 41 16 44 38l5 38c2 13 5 26 14 36 12 12 23 25 24 42 0 22-16 42-37 49-15 5-31 2-43-8-8 16-24 25-42 25-18 0-34-10-42-25-8 7-17 10-28 10z" transform="translate(0 60)"/>
  <text class="wordmark" x="420" y="220">FRANK-LI</text>
  <text class="submark" x="905" y="312">STUDIOS</text>
</svg>